<svg id="Layer_1" data-name="Layer 1" xmlns="http://www.w3.org/2000/svg" xmlns:xlink="http://www.w3.org/1999/xlink" viewBox="0 0 512 512"><defs><style>.cls-1{fill:url(#linear-gradient);}.cls-2{fill:url(#linear-gradient-2);}</style><linearGradient id="linear-gradient" x1="76.31" y1="295.8" x2="349.73" y2="295.8" gradientUnits="userSpaceOnUse"><stop offset="0.16" stop-color="#f96992"/><stop offset="1" stop-color="#f96992"/></linearGradient><linearGradient id="linear-gradient-2" x1="0" y1="256" x2="512" y2="256" xlink:href="#linear-gradient"/></defs><title>ring-outline</title><path class="cls-1" d="M213,159.09c-75.39,0-136.71,61.33-136.71,136.71S137.63,432.52,213,432.52,349.73,371.18,349.73,295.8,288.41,159.09,213,159.09Zm0,235.28a98.56,98.56,0,1,1,98.56-98.56A98.67,98.67,0,0,1,213,394.36Z"/><path class="cls-2" d="M512,103.45,411.73,3.18,323.57,38.35l4.34,78.14A211.76,211.76,0,0,0,213,82.78c-117.46,0-213,95.56-213,213s95.56,213,213,213,213-95.56,213-213a211.71,211.71,0,0,0-29.87-108.67l80.66,4.48ZM459,133.3,434,108.23,448.4,93.8l18.85,18.85Zm-36.89,17.07-54.3-3-3-54.3Zm-.71-83.54L407,81.25,381.88,56.16l20.64-8.24ZM213,470.67c-96.42,0-174.87-78.44-174.87-174.87S116.6,120.93,213,120.93,387.89,199.38,387.89,295.8,309.44,470.67,213,470.67Z"/></svg>